<?xml version="1.0" encoding="utf-8"?>

<!DOCTYPE svg PUBLIC "-//W3C//DTD SVG 1.1//EN" "http://www.w3.org/Graphics/SVG/1.1/DTD/svg11.dtd">
<svg version="1.1" id="Layer_1" xmlns="http://www.w3.org/2000/svg" xmlns:xlink="http://www.w3.org/1999/xlink" x="0px" y="0px"
	 viewBox="0 0 1337.518 1676.061" enable-background="new 0 0 1337.518 1676.061" xml:space="preserve">
<path fill="#2A9D8F" d="M1265.785,349.708c-6.174-20.359-32.444-68.602-37.688-71.328c-19.238-30.829-63.507-75.931-95.059-98.915
	c-38.089-27.609-39.22-29.561-95.291-59.527C920.399,61.319,812.021,50.23,791.404,45.963l0.722-0.104
	c-6.582-0.204-22.478-3.191-25.478-2.469c-1.609-0.859-35.25-3.754-47.349-3.503c0.401-0.257,0.81-0.521,1.235-0.786
	c-0.803,0.031-86.84-2.552-110.099,0.2c-0.802,0.126-90.757,6.892-103.092,13.06C237.726,100.375,87.937,258.778,64.188,375.042
	c-1.299,3.039-1.636,6.349-2.782,9.444c0,4.057-1.996,7.736-1.98,11.785c-1.541,4.467-3.68,23.653-3.704,26.497
	c-1.484,0.837-0.964,23.961-0.874,25.422c11.932,15.326,463.735,633.506,465.233,635.909c-0.946,2.293-3.552,3.864-3.64,6.654
	c-0.49,5.883-0.343,30.416,3.295,36.39c11.399,21.522,26.833,14.153,34.786,12.338c5.234,17.222,6.186,14.46,16.403,31.283
	c0.986,0.016,1.988,0.032,2.99,0.056c1.948,3.728,3.487,8.001,6.879,10.687c2.06,0.625,4.305,0.265,6.446,0.553
	c0.722,2.525,0.609,5.604,2.165,7.72c4.906,0.12,9.821-0.112,14.727,0.104c-0.152,2.052-2.108,3.063-3.423,4.361
	c-5.885,5.051-11.705,10.575-15.096,17.662c-0.476,39.719,0.375,10.368-1.828,54.653c-8.999,47.484,0.025,40.853,3.383,51.333
	c8.334,29.475,11.091,38.968,1.331,64.498c-1.539,5.339,0.289,10.999-1.17,16.371c-7.674,35.658-0.179,35.725-1.716,46.106
	c-0.449,7.857-0.858,16.106,2.573,23.426c-0.024,11.537,2.421,22.865,3.431,34.329c3.261,18.002-2.647,33.645,8.578,35.444
	c3.251,31.926-0.329,37.647-10.983,51.149c-3.664,4.113-6.59,8.835-10.422,12.819c-2.509,2.509-3.936,6.061-3.503,9.637
	c0.832,4.146-8.351,8.071-0.064,18.76c5.254,6.429,48.537,9.516,48.632-15.954c2.429,0.024,5.043,0.256,7.223-1.042
	c17.365-9.434,17.36-12.815,13.3-27.811c-1.813-18.846-0.171-41.204,1.371-49.843c4.77-1.908,9.645-3.568,14.687-4.626
	c-0.454-13.43-16.094-43.714-9.789-63.303c1.078-5.022,6.932-10.124-4.842-36.919c-0.385-2.429-0.257-4.923-0.096-7.352
	c3.961-6.816,13.062-17.468,9.677-38.065c-0.24-3.143,2.557-5.444,2.95-8.466c1.13-7.408,1.459-14.976,3.6-22.183
	c12.996-11.831,9.184-34.803,11.256-51.462c0.802-1.291,2.774-1.307,3.977-2.213c1.836-0.818,3.191-3.375,5.452-2.55
	c2.06,0.874,4.313,2.437,4.682,4.826c4.21,21.097,7.788,4.85,15.345,59.679c-0.866,1.17-2.165,2.341-1.836,3.976
	c0.3,3.103,5.421,21.739,5.788,22.785c1.339,0.297,2.694,0.617,4.057,0.938c0.601,7.913,2.878,15.601,5.925,22.905
	c1.877,9.514-10.699,21.927-10.102,31.122c-0.07,17.732,0.829,46.501,4.802,65.74c-4.08,14.027-7.261,13.886-6.245,18.127
	c1.034,4.177,3.816,7.849,7.456,10.134c0.786,0.649,2.285,1.066,2.052,2.397c-2.178,62.271-1.167,71.021,17.886,72.755
	c0.068,7.702-5.808,19.86,13.1,22.472c11.954,2.157,30.128,3.109,39.148-4.682c-0.457-4.554-1.964-8.875-3.592-13.1
	c-0.441-4.177,0.224-8.506-1.034-12.555c-5.011-10.458-17.058-21.308-20.933-29.768c-3.39-6.087-1.553-10.175-1.299-37.568
	c-0.233-2.213,3.255-1.523,3.568-3.464c1.307-5.428,0.032-11.056,0.617-16.531c3.52-15.313,5.7-31.018,11.08-45.834
	c3.079-23.895-4.349-29.59-3.952-39.34c-0.008-9.909,0.152-19.906,2.237-29.623c0.18-10.414-0.642-26.948-1.17-30.473
	c-0.192-2.1-2.293-3.463-2.237-5.62c-0.778-8.546-1.363-17.117-1.884-25.679c1.066-1.491,3.271-1.62,4.538-2.966
	c5.694-4.689-2.926-49.765,0.377-116.256c2.398-13.213,0.203-14.59-11.729-27.715c-0.385-2.004-0.545-4.097-1.828-5.764
	c0.524-2.416,3.543-14.496,5.588-13.1c16.794,7.417,19.375,17.813,26.168,12.258c10.085-5.283,19.514-11.777,28.14-19.201
	c2.421-1.996,2.181-5.46,2.229-8.274c51.987,41.155,42.743,34.708,48.896,34.393l-0.369,0.705c1.243-0.12,3.023,0.088,3.479-1.443
	l0.529-0.529c3.568,1.507,6.285,4.377,9.236,6.798c-1.339,1.956-3.295,3.664-3.664,6.133c0.866,0.521,1.732,1.066,2.606,1.627
	c2.903-0.127,6.895,4.213,7.504-2.966c1.128,1.183,29.918,24.541,39.805,31.844c-0.176,0.457-0.513,1.363-0.689,1.812
	c1.652,1.05,2.926,2.878,4.995,3.143c0.601,0.818,1.098,2.838,2.437,1.692c3.022,2.421,5.853,5.339,9.196,7.215
	c2.149-1.924,3.8-4.313,5.772-6.398c-2.117-3.656-6.422-5.331-9.268-8.362c0.128-0.232,0.393-0.706,0.529-0.938
	c-2.373-1.138-4.393-2.878-6.309-4.642l0.633-0.16c-6.011-0.51,1.488,3.071-43.445-32.253c0.056-0.553,0.168-1.66,0.224-2.213
	c1.208-1.108,13.197-15.802,14.391-18.063c0.834-3.047-3.046-4.554-5.468-4.449c-5.219,0.778-10.31,2.229-15.521,2.998
	c-1.531,0.313-3.359,0.465-4.353,1.836c-1.468-4.339-2.029-3.807-42.042-38.731c0.409-1.876,0.922-3.76,0.93-5.676
	c-0.008-2.02-0.946-3.96-0.561-5.981c2.158-14.103-8.067-20.386-18.183-40.495c2.173-1.459,6.454-2.189,5.804-5.612
	c-0.273-3.688-1.026-7.352-0.745-11.048c2.475-2.993,442.35-604.746,442.954-605.549c1.885-1.12,12.438-15.986,13.012-16.788
	C1283.452,447.296,1285.544,404.188,1265.785,349.708z M559.926,996.649c-11.255,15.292-17.43,14.633-27.09,41.625
	c-4.915,11.978-6.446,24.957-10.11,37.304C501.685,1047.63,67.279,452.205,62.873,447.933c-0.034-5.695-1.655-15.902,8.322-34.802
	c8.896-18.668,31.661-34.138,34.361-36.35c58.51-37.087,140.683-36.306,192.996-9.821c56.589,27.706,58.808,66.463,61.066,71.409
	c-0.261,17.532,29.556,83.664,30.513,93.704c0.361-0.289,0.73-0.577,1.098-0.858c1.199,7.852,31.049,84.549,32.533,92.365
	c0.176-0.289,0.361-0.569,0.553-0.842c4.019,13.836,66.143,179.242,65.981,183.536c0.377-0.329,0.754-0.649,1.146-0.946
	C491.997,811.659,560.663,993.569,559.926,996.649z M663.098,820.16c-8.723,0.312-27.787,12.135-32.293,16.828
	c-11.242,10.853-14.357,41.985-16.756,51.302c-2.332,8.503-7.667,14.592,11.104,15.425c1.932,3.063,3.143,6.502,4.931,9.637
	c1.171,0.826,2.686,0.914,4.033,1.379c0.361,6.39,3.8,11.97,6.71,17.477c0.738,3.704-0.12,7.544,0.056,11.312
	c-1.86,5.878-8.742,7.305-15.425,11.729c-1.459,0.914-2.798,2.036-4.353,2.798c-4.514-0.265-9.091-0.569-13.549,0.329
	c-2.028,0.497-4.089-0.088-6.125,0.072c-1.924,0.89-3.367,2.589-5.347,3.391c-9.261,3.578-12.456,1.803-16.595,7.592
	c2.068,1.523,4.081,3.143,5.925,4.963c-15.202,9.703-9.951,7.114-19.602,15.802c-3.112-11.067-18.423-49.481-19.658-55.703
	c-0.168,0.321-0.337,0.657-0.489,1.002c-0.652-5.163-34.071-92.432-36.141-101.168c-0.257,0.257-0.513,0.529-0.754,0.81
	c-1.623-9.467-139.349-379.806-140.532-387.828c1.059-89.474,156.108-132.022,253.838-70.238
	c24.084,18.269,29.122,26.923,36.093,40.831C664.378,450.578,663.245,352.026,663.098,820.16z M882.142,1181.62
	c4.081-2.012,8.851-1.788,13.156-3.167c0.601,0.617,1.227,1.275,1.836,1.94c-0.978,1.299-1.948,2.606-2.83,3.977
	c1.001,1.549,0.857,1.333,1.355,2.036c-0.826,1.114-1.587,2.277-2.189,3.544c-0.706,0.265-1.395,0.553-2.084,0.85
	c-3.263-2.598-6.47-5.259-9.653-7.945C881.837,1182.542,882.038,1181.932,882.142,1181.62z M886.776,1193.942
	c-3.372-2.466-5.777-4.007-7.52-6.39C882.294,1188.915,885.165,1190.936,886.776,1193.942z M674.795,823.904
	c-1.693-5.484-0.406-386.048-0.417-386.85c0.471-9.113,5.331-21.09,9.701-29.078c0.655-0.592,14.658-17.506,14.784-17.678
	c55.025-49.804,145.017-49.444,196.604-29.455c62.56,27.012,77.904,65.887,72.94,90.593c-1.462,3.639-19.698,51.339-19.754,55.118
	c-0.273-0.345-0.529-0.682-0.778-1.01c-0.562,5.209-92.114,251.174-93.055,256.756c-0.176-0.305-0.345-0.601-0.497-0.882
	c-3.133,12.078-27.79,74.258-27.499,78.616c-0.289-0.337-0.569-0.657-0.85-0.97c-0.778,3.247-2.181,6.366-2.405,9.741
	c-0.345-0.313-0.673-0.617-0.986-0.914c-3.334,13.379-23.494,62.767-24.148,69.3c-0.377-0.361-0.746-0.714-1.098-1.05
	c-0.441,6.831-4.874,12.611-5.877,19.345c-0.168-0.329-0.329-0.657-0.473-0.962c-0.628,3.704-17.564,48.781-21.125,59.062
	c-7.608-4.105-14.351-10.583-23.298-11.617c-2.897-5.878-1.541-2-2.261-18.455c-9.252-5.78-20.668-4.898-31.09-5.909
	c-5.42-3.568-9.276-9.468-15.457-11.897c-1.813-11.853,4.863-12.549,7.985-32.165c1.299,1.09,2.453,3.119,4.441,2.574
	c4.312-0.978,2.803-6.88,4.914-14.279c4.049,0.601,8.418,1.627,12.242-0.465c-1.711-17.938-0.861-14.131-2.469-19.466
	C711.85,841.216,709.498,821.795,674.795,823.904z M778.377,1138.383c0.257-2.862,0.441-5.732,0.609-8.586
	c4.361,2.742,8.362,6.085,12.25,9.468C787.179,1137.622,782.578,1136.676,778.377,1138.383z M796.848,1143.594
	c2.405,1.603,4.738,3.351,6.726,5.476C799.757,1149.391,803.117,1151.583,796.848,1143.594z M821.95,1064.979
	c-9.122-16.428-1.778-6.672-18.263-24.661c-6.224-19.063-23.578-36.895-27.354-41.456c-0.313-4.43,85.727-233.036,86.176-239.223
	c0.369,0.297,0.754,0.617,1.138,0.938c-0.13-5.681,55.65-150.522,55.527-156.534c0.168,0.722,0.353,1.435,0.561,2.165
	c0.786-3.576,2.237-6.983,2.758-10.615c0.353,0.273,0.706,0.537,1.074,0.826c1.366-6.636,53.972-150.097,53.971-150.393
	c0.237-50.277,59.69-90.472,121.555-96.334c2.62-0.149,27.923-3.339,42.362-1.219c7.219,0.981,47.753,2.013,84.124,24.508
	c8.1,4.279,19.493,12.906,32.533,27.787c11.776,14.057,15.259,31.991,15.898,34.097c0.577,3.407,0.329,6.911,0.425,10.358
	C1274.725,447.839,823.296,1063.498,821.95,1064.979z"/>
</svg>
